<svg xmlns="http://www.w3.org/2000/svg" width="256" height="256"><path fill="#1976D2" fill-opacity=".016" fill-rule="evenodd" d="M0 128.004v128.004l128.25-.254 128.25-.254.254-127.75L257.008 0H0zm.485.496c0 70.4.119 99.053.265 63.672s.146-92.98 0-128S.485 58.1.485 128.5"/><path fill="#1976D2" fill-opacity=".111" fill-rule="evenodd" d="m12.008 128 .005 128H244V0H12.002zM103.25 1.716c1.513.229 3.987.229 5.5 0s.275-.416-2.75-.416-4.263.187-2.75.416m-7.437.967c.721.289 1.584.253 1.916-.079s-.258-.568-1.312-.525c-1.165.048-1.402.285-.604.604m17.937-.021c.688.278 1.813.278 2.5 0 .688-.277.125-.504-1.25-.504s-1.937.227-1.25.504M87.252 10.5c.011 2.2.216 2.982.455 1.738s.23-3.044-.02-4-.446.062-.435 2.262m-5.712.436c-.38.614-.038.809.834.474.991-.38 1.617.201 1.898 1.761.413 2.287.419 2.286.324-.094-.102-2.571-1.978-3.885-3.056-2.141m46.46-.543c0 .216.698.661 1.552.989.89.341 1.291.173.941-.393-.587-.951-2.493-1.406-2.493-.596m-1.714 5.107c.008 2.75.202 3.756.432 2.236s.223-3.77-.014-5-.425.014-.418 2.764m-3.054-.5c0 1.925.206 2.712.457 1.75.252-.963.252-2.537 0-3.5-.251-.963-.457-.175-.457 1.75m-50.286 2.75L69.5 21.5l3.75-3.446C76.74 14.846 77.46 14 76.696 14c-.167 0-1.854 1.688-3.75 3.75M135 14.313c0 .172 1.463 1.635 3.25 3.25l3.25 2.937-2.937-3.25c-2.738-3.029-3.563-3.71-3.563-2.937M88.343 22.5c.003 4.4.179 6.076.39 3.724s.209-5.952-.006-8-.388-.124-.384 4.276m-3.071.5c0 2.475.195 3.488.434 2.25.238-1.238.238-3.262 0-4.5-.239-1.238-.434-.225-.434 2.25M131 20.372c0 .96.414 1.49.92 1.178.505-.313 2.352 1.123 4.103 3.191s2.726 2.859 2.167 1.759-2.407-3.322-4.104-4.937c-2.482-2.362-3.086-2.595-3.086-1.191m-8.785 13.378c-.213 12.131-.193 12.249 2.035 12.134 1.644-.085 1.787-.238.531-.567-1.477-.388-1.763-2.092-2.035-12.134L122.43 21.5zm3.113-3.25c.005 3.85.185 5.302.402 3.228.216-2.075.213-5.225-.008-7s-.398-.078-.394 3.772m-39.129 7.75C86.015 45.4 86.155 46 88 46c1.807 0 1.982-.604 1.811-6.25l-.189-6.25-.361 5.75c-.509 8.105-2.107 7.153-2.518-1.5l-.346-7.25zm-23.12-2.667c.048 1.165.285 1.402.604.605.289-.722.253-1.585-.079-1.917s-.568.258-.525 1.312M148 37.441c0 .793.408 1.693.907 2.001.498.309.671-.34.383-1.441-.611-2.335-1.29-2.63-1.29-.56M58.872 41.75c-1.243 1.586-1.208 1.621.378.378.962-.755 1.75-1.543 1.75-1.75 0-.823-.821-.294-2.128 1.372M143 55c-.825.533-1.05.969-.5.969s1.675-.436 2.5-.969 1.05-.969.5-.969-1.675.436-2.5.969m-70.5 2c1.1.473 2.675.859 3.5.859.945 0 .761-.317-.5-.859-1.1-.473-2.675-.859-3.5-.859-.945 0-.761.317.5.859m63.313.683c.721.289 1.584.253 1.916-.079s-.258-.568-1.312-.525c-1.165.048-1.402.285-.604.604m-56.593.864c.951.959 21.909 3.407 28.28 3.304 2.75-.045-1.075-.679-8.5-1.409-7.425-.731-15.075-1.619-17-1.975-1.925-.355-3.176-.319-2.78.08m50.27.035c-.555.234-4.38.852-8.5 1.375l-7.49.951 7.5-.446c6.919-.412 16.276-2.28 11.5-2.297-1.1-.004-2.454.184-3.01.417M139.5 60c-1.319.567-1.489.878-.5.914.825.031 2.175-.381 3-.914 1.828-1.181.249-1.181-2.5 0M73 61c3.419 1.095 6.048 1.095 3.5 0-1.1-.473-2.9-.846-4-.83-1.608.024-1.51.186.5.83m61.813.683c.721.289 1.584.253 1.916-.079s-.258-.568-1.312-.525c-1.165.048-1.402.285-.604.604m-54.544 1.01c.973.254 2.323.237 3-.037s-.119-.481-1.769-.461-2.204.244-1.231.498m48.518-.146c-.301.3-4.988.949-10.417 1.44l-9.87.895 9.5-.402c8.681-.366 18.799-2.172 13.417-2.394-1.146-.047-2.33.16-2.63.461M202 62.393c0 .216.698.661 1.552.989.89.341 1.291.173.941-.393-.587-.951-2.493-1.406-2.493-.596M88.5 64.071c3.948.803 18.225 1.268 17.417.568-.229-.199-5.142-.591-10.917-.872-6.678-.324-9.044-.213-6.5.304m103.372.679c-1.243 1.586-1.208 1.621.378.378 1.666-1.307 2.195-2.128 1.372-2.128-.207 0-.995.788-1.75 1.75M144.158 69c0 1.375.227 1.938.504 1.25.278-.687.278-1.812 0-2.5-.277-.687-.504-.125-.504 1.25M189 70.93c0 1.207-.843 2.093-2.25 2.364-1.929.372-1.858.453.5.57 2.303.114 2.75-.27 2.75-2.364 0-1.375-.225-2.5-.5-2.5s-.5.869-.5 1.93m8.592-1.079c-.34.55.263.738 1.407.439 1.56-.408 2.001-.031 2.001 1.71s-.441 2.118-2 1.71c-1.1-.287-2-.084-2 .453s1.012.832 2.25.657c1.644-.234 2.25-.989 2.25-2.806 0-2.524-2.746-4.043-3.908-2.163M66.079 71.583c.048 1.165.285 1.402.604.605.289-.722.253-1.585-.079-1.917s-.568.258-.525 1.312m143 0c.048 1.165.285 1.402.604.605.289-.722.253-1.585-.079-1.917s-.568.258-.525 1.312m-28.266 1.1c.721.289 1.584.253 1.916-.079s-.258-.568-1.312-.525c-1.165.048-1.402.285-.604.604m-16.544 1.01c.973.254 2.323.237 3-.037s-.119-.481-1.769-.461-2.204.244-1.231.498m-9.397 2.057c-1.243 1.586-1.208 1.621.378.378.963-.755 1.75-1.543 1.75-1.75 0-.823-.821-.294-2.128 1.372m14.941-1.067c.721.289 1.584.253 1.916-.079s-.258-.568-1.312-.525c-1.165.048-1.402.285-.604.604M208.257 77c.225.825 1.271 1.605 2.326 1.732 1.347.164 1.471.045.417-.4-.825-.347-1.872-1.127-2.326-1.732-.531-.707-.68-.565-.417.4m-32.178 4.583c.048 1.165.285 1.402.604.605.289-.722.253-1.585-.079-1.917s-.568.258-.525 1.312m-24 3c.048 1.165.285 1.402.604.605.289-.722.253-1.585-.079-1.917s-.568.258-.525 1.312m20.921-.75c0 .642-1.012 1.219-2.25 1.283-1.852.095-1.922.201-.394.594 1.995.513 4.455-1.232 3.327-2.36-.375-.376-.683-.158-.683.483m-37.67 5.794c-1.744 2.966-2.708 5.107-2.143 4.758.656-.406.788.223.364 1.74-.631 2.256-.532 2.23 1.971-.522 1.709-1.879 2.449-3.604 2.108-4.911-.29-1.109-.064-2.881.502-3.939s.881-2.058.699-2.222c-.182-.163-1.758 2.129-3.501 5.096m29.42-4.965c.688.278 1.813.278 2.5 0 .688-.277.125-.504-1.25-.504s-1.937.227-1.25.504m52.329 1.921c.048 1.165.285 1.402.604.605.289-.722.253-1.585-.079-1.917s-.568.258-.525 1.312m3.734.1c.721.289 1.584.253 1.916-.079s-.258-.568-1.312-.525c-1.165.048-1.402.285-.604.604m-57.734 1.9c.048 1.165.285 1.402.604.605.289-.722.253-1.585-.079-1.917s-.568.258-.525 1.312m62.734-.9c.721.289 1.584.253 1.916-.079s-.258-.568-1.312-.525c-1.165.048-1.402.285-.604.604m-45 1c.721.289 1.584.253 1.916-.079s-.258-.568-1.312-.525c-1.165.048-1.402.285-.604.604m-29.734 1.9c.048 1.165.285 1.402.604.605.289-.722.253-1.585-.079-1.917s-.568.258-.525 1.312m65 0c.048 1.165.285 1.402.604.605.289-.722.253-1.585-.079-1.917s-.568.258-.525 1.312m-26.266.1c.721.289 1.584.253 1.916-.079s-.258-.568-1.312-.525c-1.165.048-1.402.285-.604.604m28.266.9c.048 1.165.285 1.402.604.605.289-.722.253-1.585-.079-1.917s-.568.258-.525 1.312M134.5 93c-.34.55-.141 1 .441 1S136 93.55 136 93s-.198-1-.441-1-.719.45-1.059 1m27.579.583c.048 1.165.285 1.402.604.605.289-.722.253-1.585-.079-1.917s-.568.258-.525 1.312m6.734-.9c.721.289 1.584.253 1.916-.079s-.258-.568-1.312-.525c-1.165.048-1.402.285-.604.604m4 1c.721.289 1.584.253 1.916-.079s-.258-.568-1.312-.525c-1.165.048-1.402.285-.604.604m-22.734 1.9c.048 1.165.285 1.402.604.605.289-.722.253-1.585-.079-1.917s-.568.258-.525 1.312m27.671-.921c.688.278 1.813.278 2.5 0 .688-.277.125-.504-1.25-.504s-1.937.227-1.25.504m29.063.021c.721.289 1.584.253 1.916-.079s-.258-.568-1.312-.525c-1.165.048-1.402.285-.604.604M165.195 98.5c.02 1.65.244 2.204.498 1.231s.237-2.323-.037-3-.481.119-.461 1.769m-4.116.083c.048 1.165.285 1.402.604.605.289-.722.253-1.585-.079-1.917s-.568.258-.525 1.312m25 0c.048 1.165.285 1.402.604.605.289-.722.253-1.585-.079-1.917s-.568.258-.525 1.312m35.734-.9c.721.289 1.584.253 1.916-.079s-.258-.568-1.312-.525c-1.165.048-1.402.285-.604.604m-45.106 4.482c-3.65 2.981-3.848 3.027-5.219 1.217-1.158-1.531-1.43-1.591-1.456-.323-.018.857.605 2.429 1.383 3.494 1.375 1.88 1.52 1.849 5.16-1.097 2.06-1.667 3.858-3.802 3.997-4.744s.178-1.697.09-1.678c-.089.018-1.869 1.427-3.955 3.131m-92.274-1.274c.713 1.154 4.567 3.483 4.567 2.759 0-.231-1.18-1.193-2.623-2.139s-2.318-1.224-1.944-.62m40.439.859c-1.243 1.586-1.208 1.621.378.378 1.666-1.307 2.195-2.128 1.372-2.128-.207 0-.995.787-1.75 1.75M177 103.089c-2.154 1.762-2.196 1.897-.306.973 1.207-.59 2.471-1.52 2.809-2.067.903-1.461.297-1.196-2.503 1.094m-50.5 1.499-3 2.577 3.25-2.15c1.787-1.183 3.25-2.346 3.25-2.583 0-.749-.423-.488-3.5 2.156m33.579-1.005c.048 1.165.285 1.402.604.605.289-.722.253-1.585-.079-1.917s-.568.258-.525 1.312m3.477 1.973c-.377 2.006-.485 3.848-.241 4.093.245.244.753-1.198 1.129-3.205.377-2.006.485-3.848.241-4.093-.245-.244-.753 1.198-1.129 3.205m-80.123-1.665c.713 1.154 4.567 3.483 4.567 2.759 0-.231-1.18-1.193-2.623-2.139s-2.318-1.224-1.944-.62M116 106.049c-2.475 1.013-3.923 1.867-3.218 1.897 1.62.068 8.218-2.657 8.218-3.395 0-.303-.112-.504-.25-.447zm68.079-.466c.048 1.165.285 1.402.604.605.289-.722.253-1.585-.079-1.917s-.568.258-.525 1.312m2.746.743c-.373 1.825-.233 2.482.393 1.856.533-.533.793-1.805.576-2.826-.291-1.375-.543-1.123-.969.97m5.675-1.847c1.717.779 15.846 3.508 16.221 3.134.195-.196-1.574-.824-3.933-1.395-4.803-1.163-13.836-2.441-12.288-1.739m-33.421 3.104c.048 1.165.285 1.402.604.605.289-.722.253-1.585-.079-1.917s-.568.258-.525 1.312m-69.346.541c.679.684 1.486.991 1.793.683.308-.308-.247-.867-1.233-1.243-1.425-.542-1.54-.428-.56.56m8.08-.441c.721.289 1.584.253 1.916-.079s-.258-.568-1.312-.525c-1.165.048-1.402.285-.604.604M118 109.049c-2.475 1.013-3.923 1.867-3.218 1.897 1.62.068 8.218-2.657 8.218-3.395 0-.303-.112-.504-.25-.447zm-14.75-.333c1.513.229 3.987.229 5.5 0s.275-.416-2.75-.416-4.263.187-2.75.416m43.829.867c.048 1.165.285 1.402.604.605.289-.722.253-1.585-.079-1.917s-.568.258-.525 1.312m36 0c.048 1.165.285 1.402.604.605.289-.722.253-1.585-.079-1.917s-.568.258-.525 1.312m-106 1c.048 1.165.285 1.402.604.605.289-.722.253-1.585-.079-1.917s-.568.258-.525 1.312m137.734-.9c.721.289 1.584.253 1.916-.079s-.258-.568-1.312-.525c-1.165.048-1.402.285-.604.604M86.218 113.25c1.547 1.513 3.369 2.736 4.048 2.72s.334-.529-.766-1.137-2.922-1.832-4.048-2.72c-1.127-.887-.782-.376.766 1.137m46.861-1.667c.048 1.165.285 1.402.604.605.289-.722.253-1.585-.079-1.917s-.568.258-.525 1.312m25.079.417c0 1.375.227 1.938.504 1.25.278-.687.278-1.812 0-2.5-.277-.687-.504-.125-.504 1.25m7.66-.782c.533.533 1.805.793 2.826.576 1.375-.291 1.123-.543-.97-.969-1.825-.373-2.482-.233-1.856.393m-63.568.51c2.063.216 5.438.216 7.5 0 2.063-.215.375-.392-3.75-.392s-5.812.177-3.75.392m21.622 2.022c-1.243 1.586-1.208 1.621.378.378 1.666-1.307 2.195-2.128 1.372-2.128-.207 0-.995.787-1.75 1.75m19.207-.167c.048 1.165.285 1.402.604.605.289-.722.253-1.585-.079-1.917s-.568.258-.525 1.312m3.079.417c0 1.375.227 1.938.504 1.25.278-.687.278-1.812 0-2.5-.277-.687-.504-.125-.504 1.25m15.877.934c-.569 1.064-.994 2.752-.945 3.75s.521.322 1.047-1.503c.88-3.057 1.209-3.275 4.16-2.753 2.452.434 2.734.35 1.203-.36-3.09-1.433-4.341-1.235-5.465.866m-83.956.649c.048 1.165.285 1.402.604.605.289-.722.253-1.585-.079-1.917s-.568.258-.525 1.312m125.734-.9c.721.289 1.584.253 1.916-.079s-.258-.568-1.312-.525c-1.165.048-1.402.285-.604.604m-71.734 1.9c.048 1.165.285 1.402.604.605.289-.722.253-1.585-.079-1.917s-.568.258-.525 1.312m39.19-.89c.973.254 2.323.237 3-.037s-.119-.481-1.769-.461-2.204.244-1.231.498m-29.713 3.863c-.377 2.006-.485 3.848-.241 4.093.245.244.753-1.198 1.129-3.205.377-2.006.485-3.848.241-4.093-.245-.244-.753 1.198-1.129 3.205m15.523-1.973c.048 1.165.285 1.402.604.605.289-.722.253-1.585-.079-1.917s-.568.258-.525 1.312m19.734-.9c.721.289 1.584.253 1.916-.079s-.258-.568-1.312-.525c-1.165.048-1.402.285-.604.604m34.937-.021c.688.278 1.813.278 2.5 0 .688-.277.125-.504-1.25-.504s-1.937.227-1.25.504m11.329.921c.048 1.165.285 1.402.604.605.289-.722.253-1.585-.079-1.917s-.568.258-.525 1.312M145.158 119c0 1.375.227 1.938.504 1.25.278-.687.278-1.812 0-2.5-.277-.687-.504-.125-.504 1.25m-42.43-.278c1.775.221 4.925.224 7 .008 2.074-.217.622-.397-3.228-.402-3.85-.004-5.548.173-3.772.394m-49.104 1.817c-.965 2.514-.681 3.163.498 1.136.584-1.004.851-2.036.593-2.293-.257-.258-.749.263-1.091 1.157m4 0c-.965 2.514-.681 3.163.498 1.136.584-1.004.851-2.036.593-2.293-.257-.258-.749.263-1.091 1.157m21.455.044c.048 1.165.285 1.402.604.605.289-.722.253-1.585-.079-1.917s-.568.258-.525 1.312m28.921-.27c0 .172 1.463 1.635 3.25 3.25l3.25 2.937-2.937-3.25c-2.738-3.029-3.563-3.71-3.563-2.937m23.079 1.27c.048 1.165.285 1.402.604.605.289-.722.253-1.585-.079-1.917s-.568.258-.525 1.312m25 0c.048 1.165.285 1.402.604.605.289-.722.253-1.585-.079-1.917s-.568.258-.525 1.312m66 1c.048 1.165.285 1.402.604.605.289-.722.253-1.585-.079-1.917s-.568.258-.525 1.312M144.158 124c0 1.375.227 1.938.504 1.25.278-.687.278-1.812 0-2.5-.277-.687-.504-.125-.504 1.25m15.921-.417c.048 1.165.285 1.402.604.605.289-.722.253-1.585-.079-1.917s-.568.258-.525 1.312M98.86 124.75c-2.877 3.473-4.095 5.25-3.601 5.25.277 0 1.705-1.575 3.173-3.5 2.725-3.572 3.055-4.921.428-1.75m74.012 0c-1.243 1.586-1.208 1.621.378.378.963-.755 1.75-1.543 1.75-1.75 0-.823-.821-.294-2.128 1.372m13.941-1.067c.721.289 1.584.253 1.916-.079s-.258-.568-1.312-.525c-1.165.048-1.402.285-.604.604m-135.189 1.856c-.965 2.514-.681 3.163.498 1.136.584-1.004.851-2.036.593-2.293-.257-.258-.749.263-1.091 1.157m4 0c-.965 2.514-.681 3.163.498 1.136.584-1.004.851-2.036.593-2.293-.257-.258-.749.263-1.091 1.157m24.455.044c.048 1.165.285 1.402.604.605.289-.722.253-1.585-.079-1.917s-.568.258-.525 1.312m110.671-.921c.688.278 1.813.278 2.5 0 .688-.277.125-.504-1.25-.504s-1.937.227-1.25.504m-60.671 1.921c.048 1.165.285 1.402.604.605.289-.722.253-1.585-.079-1.917s-.568.258-.525 1.312m10.079.417c0 1.375.227 1.938.504 1.25.278-.687.278-1.812 0-2.5-.277-.687-.504-.125-.504 1.25m14.921-.417c.048 1.165.285 1.402.604.605.289-.722.253-1.585-.079-1.917s-.568.258-.525 1.312m40.734-.9c.721.289 1.584.253 1.916-.079s-.258-.568-1.312-.525c-1.165.048-1.402.285-.604.604m-36.734 1.9c.048 1.165.285 1.402.604.605.289-.722.253-1.585-.079-1.917s-.568.258-.525 1.312m40.734-.9c.721.289 1.584.253 1.916-.079s-.258-.568-1.312-.525c-1.165.048-1.402.285-.604.604m-56.734 1.9c.048 1.165.285 1.402.604.605.289-.722.253-1.585-.079-1.917s-.568.258-.525 1.312m39 0c.048 1.165.285 1.402.604.605.289-.722.253-1.585-.079-1.917s-.568.258-.525 1.312m21.734-.9c.721.289 1.584.253 1.916-.079s-.258-.568-1.312-.525c-1.165.048-1.402.285-.604.604m-122.734 1.9c.048 1.165.285 1.402.604.605.289-.722.253-1.585-.079-1.917s-.568.258-.525 1.312m127.671-.921c.688.278 1.813.278 2.5 0 .688-.277.125-.504-1.25-.504s-1.937.227-1.25.504m-155.126 1.877c-.343.893-.595 2.15-.561 2.793.035.642.495.09 1.022-1.227s.779-2.574.56-2.793-.679.333-1.021 1.227M223 130c1.196.773.993.99-1 1.071l-2.5.101 2.52.766c4.29 1.304 12.853 2.196 10.166 1.058-1.273-.538-2.066-1.382-1.761-1.874.626-1.014-2.692-2.096-6.425-2.093-1.979.001-2.188.204-1 .971m-83.842 2c0 1.375.227 1.938.504 1.25.278-.687.278-1.812 0-2.5-.277-.687-.504-.125-.504 1.25m3 1c0 1.375.227 1.938.504 1.25.278-.687.278-1.812 0-2.5-.277-.687-.504-.125-.504 1.25m-60.079.583c.048 1.165.285 1.402.604.605.289-.722.253-1.585-.079-1.917s-.568.258-.525 1.312M162 133c1.375.44 3.4.801 4.5.801 1.584 0 1.48-.167-.5-.801-1.375-.44-3.4-.801-4.5-.801-1.584 0-1.48.167.5.801m29.813-.317c.721.289 1.584.253 1.916-.079s-.258-.568-1.312-.525c-1.165.048-1.402.285-.604.604M26.872 134.75c-1.243 1.586-1.208 1.621.378.378 1.666-1.307 2.195-2.128 1.372-2.128-.207 0-.995.787-1.75 1.75m169.941-1.067c.721.289 1.584.253 1.916-.079s-.258-.568-1.312-.525c-1.165.048-1.402.285-.604.604m-68.734 1.9c.048 1.165.285 1.402.604.605.289-.722.253-1.585-.079-1.917s-.568.258-.525 1.312m25 0c.048 1.165.285 1.402.604.605.289-.722.253-1.585-.079-1.917s-.568.258-.525 1.312M171 135c1.375.44 3.4.801 4.5.801 1.584 0 1.48-.167-.5-.801-1.375-.44-3.4-.801-4.5-.801-1.584 0-1.48.167.5.801m-32.921 1.583c.048 1.165.285 1.402.604.605.289-.722.253-1.585-.079-1.917s-.568.258-.525 1.312m23.734-.9c.721.289 1.584.253 1.916-.079s-.258-.568-1.312-.525c-1.165.048-1.402.285-.604.604m43 0c.721.289 1.584.253 1.916-.079s-.258-.568-1.312-.525c-1.165.048-1.402.285-.604.604m-121.734 1.9c.048 1.165.285 1.402.604.605.289-.722.253-1.585-.079-1.917s-.568.258-.525 1.312m57.477 1.973c-.377 2.006-.485 3.848-.241 4.093.245.244.753-1.198 1.129-3.205.377-2.006.485-3.848.241-4.093-.245-.244-.753 1.198-1.129 3.205m16.068-2.017c-.343.893-.585 2.375-.538 3.293.047.917.482.341.967-1.282.943-3.156.609-4.718-.429-2.011M167 137c3.419 1.095 6.048 1.095 3.5 0-1.1-.473-2.9-.846-4-.83-1.608.024-1.51.186.5.83m-145.076 2.75L19.5 142.5l2.75-2.424c2.57-2.266 3.209-3.076 2.424-3.076-.179 0-1.416 1.238-2.75 2.75m130.234.25c0 1.375.227 1.938.504 1.25.278-.687.278-1.812 0-2.5-.277-.687-.504-.125-.504 1.25m20.342-1c-.34.55-.366 1-.059 1s-.228.829-1.191 1.841-2.071 1.672-2.464 1.464-1.666.575-2.83 1.739c-1.985 1.985-2.196 2.009-3.384.385-.697-.952-1.525-1.314-1.841-.803-.316.512.192 1.946 1.128 3.188l1.703 2.257 6.469-6.031c4.065-3.79 5.841-6.033 4.778-6.036-.93-.002-1.969.446-2.309.996m-74.268 3c0 1.925.206 2.713.457 1.75.252-.963.252-2.537 0-3.5-.251-.963-.457-.175-.457 1.75m14 0c0 1.925.206 2.713.457 1.75.252-.963.252-2.537 0-3.5-.251-.963-.457-.175-.457 1.75m14.847-1.417c.048 1.165.285 1.402.604.605.289-.722.253-1.585-.079-1.917s-.568.258-.525 1.312m9.477 1.973c-.377 2.006-.485 3.848-.241 4.093.245.244.753-1.198 1.129-3.205.377-2.006.485-3.848.241-4.093-.245-.244-.753 1.198-1.129 3.205m-52.477.027c.048 1.165.285 1.402.604.605.289-.722.253-1.585-.079-1.917s-.568.258-.525 1.312m67 2c.048 1.165.285 1.402.604.605.289-.722.253-1.585-.079-1.917s-.568.258-.525 1.312m4.079.417c0 1.375.227 1.938.504 1.25.278-.687.278-1.812 0-2.5-.277-.687-.504-.125-.504 1.25m28.342-1c1.1.473 2.9.846 4 .83 1.608-.024 1.51-.186-.5-.83-3.419-1.095-6.048-1.095-3.5 0m-4.421 1.583c.048 1.165.285 1.402.604.605.289-.722.253-1.585-.079-1.917s-.568.258-.525 1.312M63.437 148.25 60.5 151.5l3.25-2.937c1.787-1.615 3.25-3.078 3.25-3.25 0-.773-.825-.092-3.563 2.937m75.163.85c-.366 2.292-.471 4.362-.232 4.601s.748-1.427 1.132-3.701.489-4.345.232-4.601c-.256-.256-.766 1.409-1.132 3.701m53.213-3.417c.721.289 1.584.253 1.916-.079s-.258-.568-1.312-.525c-1.165.048-1.402.285-.604.604m-16.734 1.9c.048 1.165.285 1.402.604.605.289-.722.253-1.585-.079-1.917s-.568.258-.525 1.312m21.734-.9c.721.289 1.584.253 1.916-.079s-.258-.568-1.312-.525c-1.165.048-1.402.285-.604.604M97.252 150.5c.011 2.2.216 2.982.455 1.738s.23-3.044-.02-4-.446.062-.435 2.262m15.943-1c.02 1.65.244 2.204.498 1.231s.237-2.323-.037-3-.481.119-.461 1.769m87.618-1.817c.721.289 1.584.253 1.916-.079s-.258-.568-1.312-.525c-1.165.048-1.402.285-.604.604M135.158 150c0 1.375.227 1.938.504 1.25.278-.687.278-1.812 0-2.5-.277-.687-.504-.125-.504 1.25m14.921-.417c.048 1.165.285 1.402.604.605.289-.722.253-1.585-.079-1.917s-.568.258-.525 1.312m4.079.417c0 1.375.227 1.938.504 1.25.278-.687.278-1.812 0-2.5-.277-.687-.504-.125-.504 1.25m-68.079 1.583c.048 1.165.285 1.402.604.605.289-.722.253-1.585-.079-1.917s-.568.258-.525 1.312m88 0c.048 1.165.285 1.402.604.605.289-.722.253-1.585-.079-1.917s-.568.258-.525 1.312m8.734.1c.721.289 1.584.253 1.916-.079s-.258-.568-1.312-.525c-1.165.048-1.402.285-.604.604m-58.734 1.9c.048 1.165.285 1.402.604.605.289-.722.253-1.585-.079-1.917s-.568.258-.525 1.312m63.734-.9c.721.289 1.584.253 1.916-.079s-.258-.568-1.312-.525c-1.165.048-1.402.285-.604.604M134.158 155c0 1.375.227 1.938.504 1.25.278-.687.278-1.812 0-2.5-.277-.687-.504-.125-.504 1.25m14.921-.417c.048 1.165.285 1.402.604.605.289-.722.253-1.585-.079-1.917s-.568.258-.525 1.312m7.671-.921c.688.278 1.813.278 2.5 0 .688-.277.125-.504-1.25-.504s-1.937.227-1.25.504m-102.226 2.904c.929 1.686 2.579 4.161 3.666 5.5l1.977 2.434-1.691-3.066c-.929-1.686-2.579-4.161-3.666-5.5l-1.977-2.434zm107.226-1.904c.688.278 1.813.278 2.5 0 .688-.277.125-.504-1.25-.504s-1.937.227-1.25.504m-47.555 2.838c.02 1.65.244 2.204.498 1.231s.237-2.323-.037-3-.481.119-.461 1.769m22.963-.5c0 1.375.227 1.938.504 1.25.278-.687.278-1.812 0-2.5-.277-.687-.504-.125-.504 1.25m30.342-1c1.1.473 2.9.846 4 .83 1.608-.024 1.51-.186-.5-.83-3.419-1.095-6.048-1.095-3.5 0m-10.687.683c.721.289 1.584.253 1.916-.079s-.258-.568-1.312-.525c-1.165.048-1.402.285-.604.604M96.252 160.5c.011 2.2.216 2.982.455 1.738s.23-3.044-.02-4-.446.062-.435 2.262m51.827-1.917c.048 1.165.285 1.402.604.605.289-.722.253-1.585-.079-1.917s-.568.258-.525 1.312M162 158c3.419 1.095 6.048 1.095 3.5 0-1.1-.473-2.9-.846-4-.83-1.608.024-1.51.186.5.83m-29.444 3.556c-.377 2.006-.485 3.848-.241 4.093.245.244.753-1.198 1.129-3.205.377-2.006.485-3.848.241-4.093-.245-.244-.753 1.198-1.129 3.205m18.648 1.382c-.662 2.868-1.167 5.968-1.121 6.888.046.921.73-.999 1.52-4.266s1.295-6.367 1.121-6.889-.858 1.398-1.52 4.267m56.875-3.355c.048 1.165.285 1.402.604.605.289-.722.253-1.585-.079-1.917s-.568.258-.525 1.312M61 161c.589 1.1 1.295 2 1.57 2s.019-.9-.57-2-1.295-2-1.57-2-.019.9.57 2m108-1.287c.825.306 2.175 1.058 3 1.671 1.303.97 1.32.887.128-.634-.755-.963-2.105-1.714-3-1.671-1.362.066-1.383.17-.128.634m-33.444 3.843c-.377 2.006-.485 3.848-.241 4.093.245.244.753-1.198 1.129-3.205.377-2.006.485-3.848.241-4.093-.245-.244-.753 1.198-1.129 3.205m-46.477-.973c.048 1.165.285 1.402.604.605.289-.722.253-1.585-.079-1.917s-.568.258-.525 1.312M115.232 164c0 1.925.206 2.713.457 1.75.252-.963.252-2.537 0-3.5-.251-.963-.457-.175-.457 1.75m31.926 0c0 1.375.227 1.938.504 1.25.278-.687.278-1.812 0-2.5-.277-.687-.504-.125-.504 1.25m16.43 1.588c-2.599 1.985-4.853 3.452-5.009 3.26-.156-.191-.738-1.193-1.293-2.226-.671-1.249-1.243-1.5-1.707-.75-.383.62-.194 1.128.421 1.128s.877.39.583.866c-.295.477.245 1.573 1.199 2.437 1.598 1.446 2.127 1.228 6.726-2.771 6.196-5.388 5.504-6.849-.92-1.944m-42.509-.005c.048 1.165.285 1.402.604.605.289-.722.253-1.585-.079-1.917s-.568.258-.525 1.312M61 167c.589 1.1 1.295 2 1.57 2s.019-.9-.57-2-1.295-2-1.57-2-.019.9.57 2m29.079-.417c.048 1.165.285 1.402.604.605.289-.722.253-1.585-.079-1.917s-.568.258-.525 1.312m5.015 4.917c-.035 2.75.317 5.601.783 6.335.495.781.663-.879.405-4-.605-7.328-1.112-8.323-1.188-2.335m36.064-2.5c0 1.375.227 1.938.504 1.25.278-.687.278-1.812 0-2.5-.277-.687-.504-.125-.504 1.25m14.921-.417c.048 1.165.285 1.402.604.605.289-.722.253-1.585-.079-1.917s-.568.258-.525 1.312m14.326.667-1.905 2.25 2.25-1.905c2.114-1.79 2.705-2.595 1.905-2.595-.19 0-1.202 1.012-2.25 2.25m-44.153 2.25c.011 2.2.216 2.982.455 1.738s.23-3.044-.02-4-.446.062-.435 2.262m3.304.056c-.377 2.006-.485 3.848-.241 4.093.245.244.753-1.198 1.129-3.205.377-2.006.485-3.848.241-4.093-.245-.244-.753 1.198-1.129 3.205m14.602-.556c0 1.375.227 1.938.504 1.25.278-.687.278-1.812 0-2.5-.277-.687-.504-.125-.504 1.25M64 172c.589 1.1 1.295 2 1.57 2s.019-.9-.57-2-1.295-2-1.57-2-.019.9.57 2m105.571.571c-.367 1.466-.475 2.858-.24 3.094.236.235.73-.771 1.098-2.236.367-1.466.475-2.858.24-3.094-.236-.235-.73.771-1.098 2.236m-24.413.429c0 1.375.227 1.938.504 1.25.278-.687.278-1.812 0-2.5-.277-.687-.504-.125-.504 1.25m-15 1c0 1.375.227 1.938.504 1.25.278-.687.278-1.812 0-2.5-.277-.687-.504-.125-.504 1.25m72.655-1.317c.721.289 1.584.253 1.916-.079s-.258-.568-1.312-.525c-1.165.048-1.402.285-.604.604m9.266.9c.048 1.165.285 1.402.604.605.289-.722.253-1.585-.079-1.917s-.568.258-.525 1.312m-120 1c.048 1.165.285 1.402.604.605.289-.722.253-1.585-.079-1.917s-.568.258-.525 1.312m130.907 1.167c-.007 1.512-.168 3.65-.356 4.75-.189 1.1-.137 1.372.115.605.391-1.194.585-1.194 1.341 0 .584.922.889-.215.899-3.355.008-2.613-.435-4.75-.985-4.75s-1.006 1.238-1.014 2.75m-179.753-1.064c1.574.413 1.758 2.706 2.018 25.134l.286 24.68.231-25.25L46 174l-2.25.116c-1.666.086-1.8.234-.517.57M70 176c.589 1.1 1.295 2 1.57 2s.019-.9-.57-2-1.295-2-1.57-2-.019.9.57 2m63.195.5c.02 1.65.244 2.204.498 1.231s.237-2.323-.037-3-.481.119-.461 1.769m45.555-1.838c.688.278 1.813.278 2.5 0 .688-.277.125-.504-1.25-.504s-1.937.227-1.25.504m-25.937 1.021c.721.289 1.584.253 1.916-.079s-.258-.568-1.312-.525c-1.165.048-1.402.285-.604.604m31 0c.721.289 1.584.253 1.916-.079s-.258-.568-1.312-.525c-1.165.048-1.402.285-.604.604m23.751 1.024c-.542 1.425-.428 1.54.56.56.684-.679.991-1.486.683-1.793-.308-.308-.867.247-1.243 1.233M144 177.5c0 .825.436 1.5.969 1.5s.709-.675.393-1.5c-.317-.825-.753-1.5-.969-1.5s-.393.675-.393 1.5m13.813-.817c.721.289 1.584.253 1.916-.079s-.258-.568-1.312-.525c-1.165.048-1.402.285-.604.604m30 0c.721.289 1.584.253 1.916-.079s-.258-.568-1.312-.525c-1.165.048-1.402.285-.604.604m-94.723 1.111c-.135 1.937 3.216 14.799 3.563 13.676.164-.534-.55-4.12-1.587-7.97s-1.926-6.417-1.976-5.706m24.989.789c.048 1.165.285 1.402.604.605.289-.722.253-1.585-.079-1.917s-.568.258-.525 1.312m11.079.417c0 1.375.227 1.938.504 1.25.278-.687.278-1.812 0-2.5-.277-.687-.504-.125-.504 1.25m32.655-1.317c.721.289 1.584.253 1.916-.079s-.258-.568-1.312-.525c-1.165.048-1.402.285-.604.604m30 0c.721.289 1.584.253 1.916-.079s-.258-.568-1.312-.525c-1.165.048-1.402.285-.604.604m-26 1c.721.289 1.584.253 1.916-.079s-.258-.568-1.312-.525c-1.165.048-1.402.285-.604.604M196.5 179c1.1.473 2.675.859 3.5.859.945 0 .761-.317-.5-.859-1.1-.473-2.675-.859-3.5-.859-.945 0-.761.317.5.859m14.658 1c0 1.375.227 1.938.504 1.25.278-.687.278-1.812 0-2.5-.277-.687-.504-.125-.504 1.25m-60.658.057c5.066 1.048 9.159 1.001 5-.057-1.65-.42-4.35-.765-6-.767-2.522-.002-2.363.129 1 .824m-53.421 1.526c.048 1.165.285 1.402.604.605.289-.722.253-1.585-.079-1.917s-.568.258-.525 1.312m35.079.417c0 1.375.227 1.938.504 1.25.278-.687.278-1.812 0-2.5-.277-.687-.504-.125-.504 1.25m70.592-1.338c.688.278 1.813.278 2.5 0 .688-.277.125-.504-1.25-.504s-1.937.227-1.25.504m-85.671 1.921c.048 1.165.285 1.402.604.605.289-.722.253-1.585-.079-1.917s-.568.258-.525 1.312M162 182c3.419 1.095 6.048 1.095 3.5 0-1.1-.473-2.9-.846-4-.83-1.608.024-1.51.186.5.83m-49.375 3.125c-.834 4.168-.026 4.976.875.875.38-1.729.482-3.351.227-3.606s-.751.974-1.102 2.731m56.188-1.442c.721.289 1.584.253 1.916-.079s-.258-.568-1.312-.525c-1.165.048-1.402.285-.604.604M210.158 185c0 1.375.227 1.938.504 1.25.278-.687.278-1.812 0-2.5-.277-.687-.504-.125-.504 1.25m-112.079.583c.048 1.165.285 1.402.604.605.289-.722.253-1.585-.079-1.917s-.568.258-.525 1.312m74.734-.9c.721.289 1.584.253 1.916-.079s-.258-.568-1.312-.525c-1.165.048-1.402.285-.604.604m-58.726 9.404c-1.259 4.975-2.102 9.231-1.875 9.458s1.442-3.657 2.701-8.632 2.102-9.231 1.875-9.458-1.442 3.657-2.701 8.632M129 185.899c0 .928 5.886 6.598 6.258 6.028.153-.235-1.192-1.851-2.99-3.591-1.797-1.741-3.268-2.837-3.268-2.437m5.722 1.151c1.222 1.287 2.416 2.139 2.652 1.894s-.763-1.296-2.222-2.338l-2.652-1.894zM74 188c.589 1.1 1.295 2 1.57 2s.019-.9-.57-2-1.295-2-1.57-2-.019.9.57 2m108.813-1.317c.721.289 1.584.253 1.916-.079s-.258-.568-1.312-.525c-1.165.048-1.402.285-.604.604m38.266.9c.048 1.165.285 1.402.604.605.289-.722.253-1.585-.079-1.917s-.568.258-.525 1.312M99.625 191c.349 1.925 1.028 4.4 1.51 5.5.6 1.373.676.903.24-1.5-.349-1.925-1.028-4.4-1.51-5.5-.6-1.373-.676-.903-.24 1.5m42.125-1.338c.688.278 1.813.278 2.5 0 .688-.277.125-.504-1.25-.504s-1.937.227-1.25.504m67.329.921c.048 1.165.285 1.402.604.605.289-.722.253-1.585-.079-1.917s-.568.258-.525 1.312m-99.768 8.034c-1.146 4.706-1.743 8.18-1.325 7.72.96-1.059 4.398-15.286 3.83-15.854-.232-.232-1.359 3.428-2.505 8.134m37.939-7.928c.963.252 2.537.252 3.5 0 .963-.251.175-.457-1.75-.457s-2.713.206-1.75.457m54.563-.006c.721.289 1.584.253 1.916-.079s-.258-.568-1.312-.525c-1.165.048-1.402.285-.604.604M76.97 192.944c.573 1.07 1.535 2.25 2.139 2.623s.325-.501-.62-1.944c-2.002-3.055-3.038-3.518-1.519-.679m77.843-1.261c.721.289 1.584.253 1.916-.079s-.258-.568-1.312-.525c-1.165.048-1.402.285-.604.604m-17 1c.721.289 1.584.253 1.916-.079s-.258-.568-1.312-.525c-1.165.048-1.402.285-.604.604m23 0c.721.289 1.584.253 1.916-.079s-.258-.568-1.312-.525c-1.165.048-1.402.285-.604.604m-63.161 3.281c.658 3.795 3.173 11.14 3.264 9.536.031-.55-.826-3.7-1.905-7-1.078-3.3-1.69-4.441-1.359-2.536M143 194c1.375.44 3.625.792 5 .782 2.246-.017 2.195-.096-.5-.782-1.65-.42-3.9-.772-5-.782-1.567-.015-1.459.155.5.782m8.75 1.662c.688.278 1.813.278 2.5 0 .688-.277.125-.504-1.25-.504s-1.937.227-1.25.504m22.063.021c.721.289 1.584.253 1.916-.079s-.258-.568-1.312-.525c-1.165.048-1.402.285-.604.604m-17 1c.721.289 1.584.253 1.916-.079s-.258-.568-1.312-.525c-1.165.048-1.402.285-.604.604m21 0c.721.289 1.584.253 1.916-.079s-.258-.568-1.312-.525c-1.165.048-1.402.285-.604.604m-10.544 2.01c.973.254 2.323.237 3-.037s-.119-.481-1.769-.461-2.204.244-1.231.498m5.481.969c.688.278 1.813.278 2.5 0 .688-.277.125-.504-1.25-.504s-1.937.227-1.25.504m18 0c.688.278 1.813.278 2.5 0 .688-.277.125-.504-1.25-.504s-1.937.227-1.25.504m-12.937 1.021c.721.289 1.584.253 1.916-.079s-.258-.568-1.312-.525c-1.165.048-1.402.285-.604.604m19 0c.721.289 1.584.253 1.916-.079s-.258-.568-1.312-.525c-1.165.048-1.402.285-.604.604m-15 1c.721.289 1.584.253 1.916-.079s-.258-.568-1.312-.525c-1.165.048-1.402.285-.604.604M103.086 203c-.031.825.381 2.175.914 3 1.181 1.828 1.181.249 0-2.5-.567-1.319-.878-1.489-.914-.5m83.727-.317c.721.289 1.584.253 1.916-.079s-.258-.568-1.312-.525c-1.165.048-1.402.285-.604.604m4 1c.721.289 1.584.253 1.916-.079s-.258-.568-1.312-.525c-1.165.048-1.402.285-.604.604m19.456.01c.973.254 2.323.237 3-.037s-.119-.481-1.769-.461-2.204.244-1.231.498M161.428 226c0 12.375.143 17.438.319 11.25.175-6.187.175-16.312 0-22.5-.176-6.187-.319-1.125-.319 11.25m33.322-21.338c.688.278 1.813.278 2.5 0 .688-.277.125-.504-1.25-.504s-1.937.227-1.25.504m-84.179 2.909c-.367 1.466-.475 2.858-.24 3.094.236.235.73-.771 1.098-2.236.367-1.466.475-2.858.24-3.094-.236-.235-.73.771-1.098 2.236m89.242-1.888c.721.289 1.584.253 1.916-.079s-.258-.568-1.312-.525c-1.165.048-1.402.285-.604.604M87 206.378c0 .207.787.995 1.75 1.75 1.586 1.243 1.621 1.208.378-.378-1.307-1.666-2.128-2.195-2.128-1.372M101.141 208c0 .825.386 2.4.859 3.5.542 1.261.859 1.445.859.5 0-.825-.386-2.4-.859-3.5-.542-1.261-.859-1.445-.859-.5m108.109-.311c.963.252 2.537.252 3.5 0 .963-.251.175-.457-1.75-.457s-2.713.206-1.75.457m3.622 3.061c-1.243 1.586-1.208 1.621.378.378 1.666-1.307 2.195-2.128 1.372-2.128-.207 0-.995.787-1.75 1.75m-103.793 2.833c.048 1.165.285 1.402.604.605.289-.722.253-1.585-.079-1.917s-.568.258-.525 1.312M105 221.882c0 .55.45 1.278 1 1.618s1 .168 1-.382-.45-1.278-1-1.618-1-.168-1 .382"/><path fill="#1976D2" fill-opacity=".251" fill-rule="evenodd" d="M100.5 2.642c-5.539.727-11.369 2.572-11.749 3.72-.208.626-.054 5.413.342 10.638.395 5.225.761 13.887.813 19.25.092 9.586.055 9.75-2.25 9.75-2.339 0-2.344-.032-2.968-16.636-.344-9.149-.831-16.84-1.082-17.091-1.059-1.059-4.844 1.136-9.119 5.291-4.855 4.719-10.485 15.202-10.486 19.525-.001 1.784-.771 2.941-2.473 3.716-3.372 1.537-4.313 5.67-1.899 8.338 2.819 3.114 6.659 4.788 17.242 7.514 29.6 7.624 76.129.941 76.129-10.935 0-1.305-1.081-3.389-2.402-4.63s-2.92-4.312-3.552-6.825c-1.619-6.43-3.575-9.849-8.871-15.512-4.681-5.003-9.709-8.359-10.491-7.001-.236.41-.752 8.169-1.145 17.242-.711 16.372-1.101 17.952-4.443 17.989-1.166.012-1.298-2.152-.777-12.735.345-7.012.931-16.233 1.3-20.49l.673-7.74-3.396-1.391c-3.677-1.506-14.562-2.621-19.396-1.987m30.228 18.289c-.321 1.231.396 2.771 1.981 4.25 3.22 3.004 6.291 9.034 6.291 12.352 0 1.953.443 2.527 1.75 2.272 3.367-.658.291-11.081-5.181-17.555-3.167-3.747-4.137-4.011-4.841-1.319M67 66.342c0 5.774.543 7.561 5.002 16.469 8.348 16.675 19.271 24.486 34.234 24.48 5.529-.002 7.88-.566 13.122-3.147 8.261-4.066 13.442-9.794 19.163-21.186 3.719-7.406 4.729-10.556 5.206-16.241.557-6.649.482-7.011-1.318-6.315-5.279 2.04-18.796 4.6-27.326 5.175-13.808.93-32.708-1.19-46.333-5.197-1.54-.453-1.75.264-1.75 5.962m126.174-1.028c-1.241 1.322-2.174 3.611-2.174 5.334 0 1.66-.228 3.247-.507 3.526s-2.51.203-4.958-.169c-5.489-.833-6.037-.501-7.418 4.495-2.056 7.437-1.759 8.042 4.633 9.429 3.162.687 11.15 2.557 17.75 4.156 6.6 1.6 12.501 2.91 13.113 2.912 1.316.004 3.895-11.231 3.071-13.377-.322-.841-2.531-1.774-5.117-2.162-4.329-.649-4.514-.81-3.829-3.32.395-1.451.677-3.959.625-5.574-.215-6.675-10.508-10.232-15.189-5.25m3.291 5.798c-1.346 4.239 4.579 6.542 6.17 2.398.751-1.958-1.337-4.51-3.69-4.51-.996 0-2.112.95-2.48 2.112m-40.289 4.712c-1.114 1.114-2.298 4.717-3.039 9.25-.667 4.085-3.054 16.201-5.305 26.926-10.834 51.638-14.511 70.512-14.067 72.211.725 2.772 2.912 3.557 14.847 5.327 5.989.888 16.738 2.977 23.888 4.642s16.825 3.843 21.5 4.839 10.834 2.37 13.686 3.053c9.021 2.16 10.661-.329 14.381-21.828.69-3.99 1.053-7.457.807-7.704-.247-.247-2.337-.75-4.645-1.119-4.857-.777-4.329-1.705-6.718 11.822-1.601 9.067-1.869 9.709-3.866 9.261-16.57-3.72-47.197-10.186-54.383-11.481-5.08-.916-9.411-1.858-9.623-2.094-.213-.236.395-3.804 1.349-7.929.955-4.125 5.438-25.05 9.963-46.5 4.526-21.45 8.378-39.508 8.561-40.13.226-.766 1.667-.886 4.481-.371 3.807.696 4.225.557 5.078-1.685 1.893-4.979 1.268-6.076-4.12-7.231-7.213-1.547-10.689-1.345-12.775.741m63.433 14.382c-1.054 5.268-.798 5.74 3.477 6.424 2.247.359 4.29 1.187 4.541 1.839.25.653-.689 6.475-2.086 12.939-1.398 6.464-2.541 13.019-2.541 14.567 0 2.562.365 2.85 4.075 3.204 2.241.213 4.216.148 4.388-.145.173-.294 1.962-7.934 3.975-16.979 3.63-16.305 3.645-16.466 1.766-18.984-1.862-2.493-6.129-4.2-13.345-5.336-3.428-.54-3.677-.396-4.25 2.471m-53.639 10.468c-.736 4.304-1.368 7.989-1.404 8.188-.113.62 15.903 5.002 16.415 4.49 1.136-1.136 4.711-15.424 3.973-15.88-.445-.276-1.078.344-1.406 1.377-.603 1.9-10.338 10.695-11.05 9.983-.212-.212-1.062-1.691-1.89-3.287-1.709-3.294-1.068-5.557.836-2.952 1.155 1.579 1.611 1.465 5.853-1.453 2.531-1.741 4.84-3.553 5.133-4.027.292-.473-2.047-1.374-5.199-2.001-3.152-.628-6.674-1.394-7.827-1.703-1.922-.515-2.205.084-3.434 7.265M81 104.855c0 3.169 4.509 7.68 10.227 10.232 7.545 3.368 22.131 3.396 29 .056 5.371-2.612 9.773-7.294 9.773-10.394v-2.098l-2.25 1.99c-6.442 5.697-16.827 8.955-25.207 7.908-5.364-.671-13.62-4.043-18.632-7.612-2.879-2.051-2.911-2.052-2.911-.082m107.548-.07c-.301.302-.548 1.59-.548 2.863 0 1.581.712 2.476 2.25 2.825 1.238.281 7.127 1.64 13.089 3.019 13.842 3.203 15.661 3.222 15.661.165 0-2.157-.891-2.557-11.25-5.058-16.753-4.045-18.603-4.413-19.202-3.814m-120.263 5.122c-6.169 3.567-6.244 3.664-10.25 13.362C55.816 128.642 54 133.65 54 134.397c0 1.87 1.602 3.002 8 5.652 3.025 1.253 5.896 2.623 6.381 3.045.484.422-1.428 2.982-4.25 5.687S59 154.038 59 154.45s4.881 8.916 10.846 18.899c9.756 16.327 15.56 26.275 21.383 36.651l1.964 3.5-3.146-3.5c-6.976-7.759-14.449-18.464-26.114-37.404l-12.258-19.903 4.263-3.976c4.747-4.429 4.836-4.236-3.633-7.943-5.97-2.613-5.944-2.318-1.286-14.524 1.522-3.987 2.459-7.25 2.082-7.25-.376 0-4.491 2.331-9.143 5.181-17.061 10.45-22.263 15.289-27.373 25.464-3.579 7.125-4.533 12.398-4.561 25.215-.023 10.746.139 11.666 2.998 17.029 3.767 7.069 14.999 22.116 20.975 28.101l4.503 4.51.267-25.25.267-25.25H46l.082 11.25c.045 6.188.278 18.874.518 28.192l.435 16.942 3.233 2.803c7.281 6.316 23.919 14.734 37.412 18.929 18.159 5.646 49.501 4.652 67.667-2.145l5.653-2.115v-49.818l-2.25-.473c-1.238-.26-7.143-1.464-13.123-2.675-9.695-1.964-11.251-2.581-14.365-5.695-4.519-4.519-5.234 1.111 7.262-57.187l4.607-21.492-2.816-2.253c-3.536-2.829-4.583-2.486-5.532 1.814-.416 1.883-2.36 10.848-4.322 19.923-10.914 50.503-22.389 95-24.499 95-.442 0-1.118-1.463-1.502-3.25s-2.167-7.975-3.961-13.75c-4.636-14.92-18.243-70.192-23.444-95.233-.655-3.153-1.498-5.895-1.873-6.093s-3.479 1.256-6.897 3.233m93.314 12.196c-2.025 9.423-2.208 9.123 6.647 10.866 3.276.644 6.525 1.39 7.22 1.656.851.327 1.797-1.64 2.899-6.025 2.576-10.257 2.618-10.16-5.115-11.917-3.713-.843-7.457-1.809-8.321-2.147-1.276-.498-1.902.925-3.33 7.567m11.135.04c-3.116 2.545-4.025 2.86-5.274 1.824-2.411-2.001-2.878-.316-.814 2.942l1.895 2.993 4.729-4.343c4.301-3.949 5.926-6.612 3.98-6.525-.412.018-2.445 1.417-4.516 3.109m-73.167 3.21c-4.104 5.008-4.256 5.869-1.679 9.493 1.85 2.6 1.85 3.021.009 20.859l-1.878 18.205 4.473 15.728c2.461 8.65 4.872 16.126 5.358 16.612.512.512 2.267-4.717 4.173-12.433 1.809-7.324 3.866-14.982 4.571-17.017 1.286-3.712 1.181-4.944-3.015-35.512-.313-2.279.265-4.253 1.99-6.795 1.337-1.97 2.431-3.937 2.431-4.371s-1.731-2.664-3.846-4.956c-5.161-5.589-7.887-5.549-12.587.187m84.184 1.171c-.266 1.388-.182 2.71.186 2.937.368.228 6.149 1.628 12.845 3.113l12.176 2.699 1.935-2.386c1.064-1.313 1.798-2.525 1.631-2.694-.359-.362-26.195-6.193-27.439-6.193-.469 0-1.069 1.136-1.334 2.524m32.507 7.945c-3.764 2.742-4.526 5.113-2.747 8.552 1.416 2.738 1.419 3.192.03 4.581-.847.847-1.541 2.565-1.541 3.816s-.7 3.677-1.555 5.392c-2.933 5.878.481 8.874 13.883 12.18 8.401 2.073 8.921 2.094 10.75.439 2.121-1.919 2.451-4.572.923-7.428-.802-1.498-.593-1.996 1.057-2.519 1.131-.359 2.502-1.825 3.047-3.258.791-2.081.588-3.147-1.01-5.31-1.965-2.657-1.966-2.714-.072-3.21 2.827-.739 4.567-5.115 3.214-8.084-2.177-4.777-21.29-8.566-25.979-5.151m-59.185 7.781c-.653 3.438-1.401 6.989-1.663 7.892-.386 1.331.998 1.967 7.307 3.354 4.281.942 8.193 1.778 8.694 1.858 1.011.162 2.962-5.686 4.055-12.152.472-2.796.346-4.202-.378-4.202-.598 0-1.088.605-1.088 1.343 0 .739-2.275 3.262-5.055 5.606-4.877 4.112-5.123 4.2-7 2.502-1.951-1.767-2.642-4.451-1.145-4.451.44 0 1.311.511 1.935 1.135.847.847 2.184.305 5.265-2.135 2.271-1.799 3.763-3.599 3.315-3.999-.906-.81-9.395-3.001-11.628-3.001-.957 0-1.818 2.058-2.614 6.25M180 146.933c0 1.939.593 3.098 1.75 3.423 4.23 1.186 24.341 4.883 24.654 4.532.191-.213.646-1.36 1.01-2.548.554-1.802.119-2.334-2.625-3.211-2.933-.938-22.703-5.129-24.196-5.129-.326 0-.593 1.32-.593 2.933m-26.96 13.92c-.571 2.119-1.321 5.921-1.668 8.449-.609 4.443-.534 4.617 2.249 5.249 1.584.36 5.335 1.265 8.336 2.011s5.539 1.262 5.637 1.147c.541-.631 4.414-16.034 4.108-16.34-.421-.421-15.623-4.369-16.823-4.369-.441 0-1.269 1.734-1.839 3.853m10.663 3.911c-4.485 3.264-4.881 3.375-6.097 1.712-2.027-2.772-2.987.013-1.033 2.996.912 1.39 2.013 2.528 2.447 2.528 1.047 0 9.269-6.861 10.242-8.546 1.538-2.663-.884-2.092-5.559 1.31m11.3 4.848c.003 2.885.018 2.892 14.25 6.381 7.836 1.921 14.642 3.496 15.125 3.5s1.545-.998 2.361-2.226c1.396-2.102 1.315-2.296-1.378-3.323-6.278-2.394-19.935-5.994-24.998-6.589l-5.363-.63zm50.748 8.138c-.257 2.063-.299 3.944-.094 4.182.655.757 7.287-6.214 6.745-7.09-.286-.463-1.794-.842-3.352-.842-2.522 0-2.882.41-3.299 3.75M166 221.955c0 12.675.275 23.045.61 23.045.336 0 3.36-1.463 6.722-3.25 7.503-3.99 18.354-12.467 30.592-23.9l9.259-8.651-3.341-.698c-1.838-.385-10.767-2.404-19.842-4.489s-18.187-4.085-20.25-4.446l-3.75-.657z"/><path fill="#1976D2" fill-opacity=".797" fill-rule="evenodd" d="M94 4.267 89.5 5.5l.012 5c.007 2.75.375 12.12.819 20.823l.805 15.823-2.818-.323L85.5 46.5l-.731-14c-.402-7.7-.985-15.463-1.296-17.252-.552-3.184-.621-3.222-3.269-1.832-6.498 3.411-12.931 12.644-15.263 21.905-.737 2.927-2.044 5.172-3.607 6.196-1.905 1.248-2.383 2.317-2.143 4.795.266 2.746 1.04 3.545 5.587 5.762 10.435 5.088 34.112 8.694 49.134 7.482 18.139-1.464 33.515-5.741 37.121-10.325 2.627-3.339 2.482-4.849-.75-7.844-1.657-1.536-3.224-4.54-4.019-7.702-1.661-6.61-7.555-15.257-13.001-19.075-2.33-1.634-4.435-2.771-4.679-2.528-.429.429-.788 4.676-2.132 25.168-.631 9.627-.671 9.75-3.198 9.75h-2.559l.722-16.75c.397-9.213.803-18.313.903-20.223.152-2.94-.273-3.692-2.769-4.9-3.922-1.898-19.809-2.432-25.551-.86m36.439 16.118c-.53 2.113-.114 3.187 1.993 5.139 3.017 2.797 6.513 9.859 6.546 13.226.024 2.413.713 2.732 2.904 1.344 3.102-1.964-1.163-13.151-7.239-18.987l-3.533-3.393zM67.479 67.75c.544 5.152 1.784 8.832 5.242 15.546 5.304 10.301 11.066 16.47 19.04 20.386 4.939 2.425 6.924 2.816 14.239 2.804 7.252-.012 9.234-.403 13.5-2.663 7.89-4.179 13.221-10.222 18.503-20.973 4.256-8.662 7.244-19.936 5.695-21.485-.256-.257-4.231.556-8.832 1.806-7.409 2.013-10.654 2.271-28.366 2.257-17.25-.015-21.214-.32-28.829-2.222C72.815 61.992 68.375 61 67.805 61c-.685 0-.796 2.296-.326 6.75m125.976-2.295C191.757 67.152 191 69.02 191 71.511v3.602l-5.667-.307-5.667-.306-1.381 5.369c-.759 2.953-1.183 5.566-.942 5.808.383.382 8.055 2.293 30.905 7.695l5.747 1.359.989-3.67c2.563-9.518 2.533-9.794-1.129-10.533-7.008-1.415-6.853-1.261-6.185-6.136.716-5.224-.721-8.639-4.327-10.282-3.869-1.763-7.239-1.304-9.888 1.345m3.626 3.947c-2.04 2.459-.96 6.098 1.81 6.098 3.114 0 5.01-2.847 3.497-5.25-1.46-2.318-3.779-2.688-5.307-.848m-39.929 6.31c-1.679 1.389-2.602 4.245-4.132 12.788-1.084 6.05-3.792 19.55-6.019 30-8.98 42.146-13.001 61.992-13.001 64.166 0 3.222 3.434 5.036 11 5.81 3.575.365 19.59 3.558 35.588 7.094s30.216 6.43 31.595 6.43c4.032 0 5.546-2.823 7.78-14.501 1.158-6.049 2.273-11.788 2.478-12.753.262-1.231-.419-1.93-2.284-2.343a135 135 0 0 1-4.231-1.007c-1.274-.339-1.899 1.438-3.284 9.343-.941 5.368-2.078 10.354-2.527 11.078-.671 1.083-2.218 1.046-8.715-.211-10.416-2.014-30.198-6.259-37.265-7.996-3.099-.762-9.123-1.95-13.385-2.639-4.262-.69-7.75-1.588-7.75-1.996s1.823-9.232 4.051-19.608 4.461-20.892 4.962-23.367 2.293-10.8 3.982-18.5C159.092 103.385 163 84.312 163 83.313c0-.297 2.028-.236 4.507.136 4.785.717 5.214.392 5.731-4.351.287-2.628-.969-3.231-9.35-4.488-3.624-.543-5.022-.314-6.736 1.102m62.594 15.444c-.279 1.839-.326 3.656-.104 4.036.223.381 2.415.994 4.872 1.362 3.908.586 4.407.938 3.985 2.808-1.97 8.715-5.604 27.857-5.333 28.088.184.157 2 .586 4.036.954 4.267.771 3.511 2.502 8.389-19.198 3.849-17.118 3.06-18.636-10.764-20.709l-4.572-.686zm-52.193 4.989c-2.961 12.965-2.86 13.799 1.662 13.84.943.008 3.799.722 6.345 1.587 2.546.864 4.84 1.361 5.098 1.103.42-.419 2.682-7.934 3.967-13.175.293-1.195-.221-.793-1.277 1-.972 1.65-1.678 3.321-1.569 3.714s-.382.492-1.089.221c-.707-.272-2.355.644-3.662 2.036S174.08 109 173.382 109c-1.627 0-4.382-3.912-4.382-6.223 0-2.188 2.564-2.356 3.383-.222.49 1.278 1.308.984 4.577-1.643 2.189-1.76 3.779-3.525 3.532-3.924s-2.145-1.009-4.22-1.356-4.764-.903-5.977-1.236c-1.743-.479-2.317-.112-2.742 1.749M81 104.923c0 1.902 5.397 7.239 9.376 9.271 5.829 2.978 20.392 3.708 27.416 1.375 4.743-1.575 12.208-7.995 12.208-10.499 0-.508-2.569.623-5.709 2.514s-7.302 3.88-9.25 4.421c-8.957 2.489-21.005.223-29.51-5.549-3.992-2.709-4.531-2.891-4.531-1.533m107.574 1.744c-.352.917-.287 1.999.143 2.405.431.406 7.04 2.158 14.687 3.894 11.164 2.534 14.067 2.897 14.733 1.845 1.48-2.337.346-3.187-6.705-5.024-5.242-1.366-21.013-4.786-22.075-4.787-.079 0-.431.75-.783 1.667m-120.227 3.872-6.051 3.41-4.226 10.609c-4.842 12.156-5.096 11.378 5.022 15.396 3.249 1.291 5.908 2.913 5.908 3.604s-2.31 3.333-5.133 5.871l-5.132 4.615 13.012 21.728c22.077 36.865 25.337 42.925 19.756 36.728-6.712-7.452-12.379-15.18-20.248-27.609-21.863-34.536-21.01-32.478-15.245-36.74 1.645-1.216 2.99-2.586 2.99-3.044s-2.742-2.064-6.093-3.568c-5.976-2.682-6.081-2.798-5.475-6.028.34-1.812 1.692-5.93 3.004-9.152 1.313-3.223 2.248-6.001 2.077-6.174-.709-.721-20.19 11.657-24.702 15.695-10.67 9.55-14.268 17.957-15.335 35.838-.646 10.821-.518 12.399 1.347 16.614C17.886 197.517 37.186 223 40.08 223c.536 0 .92-10.473.92-25.066v-25.067l2.75.317 2.75.316.266 28.248.265 28.247 5.455 4.282c10.974 8.612 31.545 17.412 46.169 19.748 16.361 2.613 43.856.382 56.96-4.622l4.316-1.648.284-23.222c.157-12.771.151-23.908-.013-24.746-.213-1.09-3.495-2.159-11.5-3.744-12.91-2.557-16.905-4.177-19.298-7.83-2.353-3.591-2.127-5.804 3.089-30.28 2.512-11.788 5.675-26.674 7.029-33.08s2.727-12.338 3.051-13.182c.399-1.04-.449-2.073-2.625-3.198-3.699-1.913-4.404-1.332-5.42 4.462C129.052 144.17 108.499 226 106.129 226c-2.184 0-23.524-81.649-29.214-111.774-.652-3.451-1.484-6.46-1.85-6.686s-3.389 1.123-6.718 2.999m94.686 8.383c-.524 1.968-1.24 5.411-1.592 7.652l-.64 4.074 7.741 1.701c4.258.935 7.826 1.577 7.93 1.426s.772-2.975 1.486-6.275c.713-3.3 1.511-6.558 1.773-7.24.261-.681-1.934 1.225-4.878 4.236s-5.68 5.481-6.08 5.489c-1.415.029-3.984-4.993-3.371-6.59.49-1.277.923-1.37 2.043-.441 1.99 1.652 7.114-1.575 5.531-3.483-.752-.906-.729-1.387.08-1.656.626-.209-1.158-.851-3.966-1.426l-5.105-1.046zm-61.125 4.828c-6.726 7.501-6.511 6.943-3.982 10.364l2.273 3.075-1.758 18.229-1.758 18.23 3.78 13.926c5.83 21.472 5.177 21.172 9.645 4.426 5.407-20.267 5.299-19.005 2.984-34.843-2.652-18.148-2.627-19.59.415-23.577l2.507-3.287-4.327-4.647c-2.38-2.555-4.999-4.646-5.82-4.646s-2.602 1.237-3.959 2.75m82.524 2.465c-.338 1.065-.317 2.239.048 2.61.364.371 5.918 1.871 12.341 3.332l11.679 2.657 1.701-2.157c.935-1.186 1.385-2.252 1-2.367-.386-.116-6.428-1.516-13.428-3.111-12.375-2.82-12.744-2.846-13.341-.964m32.387 8.321c-3.365 1.827-4.345 4.781-2.812 8.48.98 2.366.908 3.267-.41 5.149-.878 1.254-1.597 3.503-1.597 4.998s-.45 2.997-1 3.337c-1.648 1.019-1.132 4.981.938 7.203 2.175 2.335 19.701 7.033 22.388 6.002 2.433-.934 3.259-5.549 1.337-7.471-1.462-1.462-1.347-1.748 1.37-3.4 3.611-2.196 3.935-5.854.778-8.795-1.661-1.548-1.818-2.039-.655-2.039 2.301 0 4.844-3.311 4.844-6.306 0-3.505-3.024-5.381-11.609-7.199-8.505-1.802-10.187-1.797-13.572.041m-58.723 5.299c-.514 2.016-1.236 5.577-1.603 7.915-.626 3.977-.518 4.251 1.669 4.262 1.286.006 4.792.665 7.791 1.463s5.616 1.289 5.814 1.092c.198-.198.938-2.544 1.645-5.214a508 508 0 0 1 1.999-7.353l.714-2.5-1.812 2.079c-.997 1.143-3.905 3.747-6.461 5.787l-4.648 3.708-2.107-2.678c-1.622-2.062-1.845-2.994-.969-4.05.824-.993 1.493-1.076 2.428-.299.951.788 2.232.462 4.855-1.238 4.295-2.782 4.447-3.579.839-4.387a276 276 0 0 1-5.984-1.434c-3.114-.788-3.27-.681-4.17 2.847m22.45 5.906c-1.304 3.398-.35 3.902 11.704 6.186 6.738 1.277 12.689 2.379 13.226 2.448s1.129-.872 1.315-2.09c.25-1.635-.266-2.358-1.976-2.763-17.743-4.203-23.748-5.138-24.269-3.781m-27.483 18.178c-.681 3.619-1.421 7.266-1.645 8.104-.311 1.16 1.079 1.813 5.837 2.742 3.435.671 7.179 1.48 8.32 1.798 1.838.513 2.222-.085 3.365-5.242.709-3.202 1.689-6.581 2.177-7.51.545-1.036.501-1.929-.114-2.309-.552-.341-1.003.047-1.003.862s-2.523 3.637-5.607 6.272c-6.078 5.192-6.166 5.184-9.509-.901-1.28-2.329 1.702-3.624 3.414-1.482 1.042 1.303 1.769 1.06 5.452-1.816 2.338-1.825 3.892-3.54 3.454-3.811s-3.52-1.121-6.85-1.89l-6.054-1.399zm22.45 5.041c-.834 2.628.098 4.04 2.666 4.04 1.134 0 7.652 1.458 14.484 3.24 10.756 2.805 12.549 3.039 13.365 1.75 2.008-3.176 1.051-3.706-13.528-7.483-14.48-3.752-16.237-3.912-16.987-1.547M226 177.502v3.634l3.049-2.171c3.55-2.527 3.407-4.334-.376-4.781-2.465-.292-2.673-.034-2.673 3.318m-98.274 22.682c-2.738 3.668-5.045 7.816-4.346 7.816.868 0 7.854-10.1 7.341-10.613-.286-.285-1.633.974-2.995 2.797M166 221.87c0 14.561.353 22.13 1.033 22.13 4.324 0 21.9-12.427 33.967-24.016 4.125-3.962 8.546-7.903 9.824-8.757 2.214-1.481 1.418-1.76-17-5.969-10.628-2.429-21.236-4.664-23.574-4.967l-4.25-.551z"/></svg>